# Blender v2.93.4 OBJ File: 'airy copy.blend'
# www.blender.org
mtllib glass1.mtl
o Curve
v -0.000002 7.895567 71.231682
v -0.000002 8.477472 69.339188
v -0.000001 8.896699 67.610237
v -0.000001 9.250263 65.555511
v -0.000001 9.421239 63.337055
v -0.000001 9.355084 61.745506
v -0.000001 9.178306 60.702179
v -0.000001 8.872596 59.769619
v -0.000001 8.465461 58.943996
v -0.000001 7.984405 58.221500
v -0.000000 7.225860 57.350662
v 0.000000 4.775455 55.695621
v -3.021504 7.294552 71.231682
v -3.244190 7.832162 69.339188
v -3.404621 8.219477 67.610237
v -3.539924 8.546128 65.555511
v -3.605353 8.704088 63.337055
v -3.580037 8.642971 61.745506
v -3.512386 8.479649 60.702179
v -3.395396 8.197209 59.769615
v -3.239592 7.821065 58.943996
v -3.055500 7.376628 58.221500
v -2.765217 6.675824 57.350662
v -1.827488 4.411945 55.695621
v -5.583010 5.583007 71.231682
v -5.994479 5.994476 69.339188
v -6.290917 6.290914 67.610237
v -6.540925 6.540921 65.555511
v -6.661822 6.661819 63.337055
v -6.615045 6.615043 61.745506
v -6.490043 6.490041 60.702179
v -6.273873 6.273872 59.769619
v -5.985985 5.985984 58.943996
v -5.645827 5.645825 58.221500
v -5.109455 5.109454 57.350662
v -3.376757 3.376756 55.695621
v -7.294553 3.021500 71.231682
v -7.832163 3.244185 69.339188
v -8.219478 3.404616 67.610237
v -8.546129 3.539919 65.555511
v -8.704090 3.605348 63.337055
v -8.642971 3.580034 61.745506
v -8.479649 3.512384 60.702183
v -8.197209 3.395394 59.769619
v -7.821065 3.239590 58.943996
v -7.376628 3.055498 58.221500
v -6.675824 2.765216 57.350662
v -4.411945 1.827487 55.695621
v -7.895567 -0.000003 71.231682
v -8.477471 -0.000004 69.339188
v -8.896698 -0.000004 67.610237
v -9.250262 -0.000003 65.555511
v -9.421237 -0.000004 63.337055
v -9.355084 -0.000003 61.745506
v -9.178306 -0.000002 60.702183
v -8.872595 -0.000002 59.769619
v -8.465460 -0.000001 58.943996
v -7.984404 -0.000002 58.221500
v -7.225859 -0.000001 57.350662
v -4.775455 -0.000000 55.695621
v -7.294551 -3.021506 71.231682
v -7.832160 -3.244192 69.339188
v -8.219475 -3.404623 67.610237
v -8.546125 -3.539926 65.555511
v -8.704086 -3.605355 63.337055
v -8.642970 -3.580039 61.745506
v -8.479648 -3.512388 60.702183
v -8.197207 -3.395397 59.769619
v -7.821065 -3.239593 58.943996
v -7.376626 -3.055501 58.221500
v -6.675822 -2.765218 57.350662
v -4.411945 -1.827488 55.695621
v -5.583005 -5.583012 71.231682
v -5.994473 -5.994481 69.339188
v -6.290912 -6.290918 67.610237
v -6.540920 -6.540926 65.555511
v -6.661816 -6.661824 63.337055
v -6.615042 -6.615046 61.745506
v -6.490040 -6.490044 60.702183
v -6.273870 -6.273874 59.769619
v -5.985983 -5.985986 58.943996
v -5.645823 -5.645828 58.221500
v -5.109452 -5.109455 57.350662
v -3.376756 -3.376757 55.695621
v -3.021498 -7.294555 71.231682
v -3.244182 -7.832164 69.339188
v -3.404614 -8.219479 67.610237
v -3.539917 -8.546129 65.555511
v -3.605346 -8.704089 63.337055
v -3.580033 -8.642973 61.745506
v -3.512383 -8.479650 60.702179
v -3.395391 -8.197209 59.769619
v -3.239589 -7.821066 58.943996
v -3.055496 -7.376628 58.221500
v -2.765215 -6.675823 57.350662
v -1.827487 -4.411945 55.695621
v 0.000005 -7.895566 71.231682
v 0.000006 -8.477471 69.339188
v 0.000006 -8.896698 67.610237
v 0.000005 -9.250261 65.555511
v 0.000006 -9.421236 63.337055
v 0.000003 -9.355084 61.745506
v 0.000004 -9.178306 60.702179
v 0.000004 -8.872594 59.769619
v 0.000002 -8.465460 58.943996
v 0.000003 -7.984403 58.221500
v 0.000002 -7.225857 57.350662
v 0.000001 -4.775455 55.695621
v 3.021508 -7.294551 71.231682
v 3.244194 -7.832160 69.339188
v 3.404624 -8.219475 67.610237
v 3.539927 -8.546125 65.555511
v 3.605356 -8.704085 63.337055
v 3.580039 -8.642969 61.745506
v 3.512389 -8.479647 60.702179
v 3.395398 -8.197206 59.769619
v 3.239594 -7.821064 58.943996
v 3.055502 -7.376625 58.221500
v 2.765218 -6.675821 57.350662
v 1.827488 -4.411944 55.695621
v 5.583013 -5.583005 71.231682
v 5.994482 -5.994473 69.339188
v 6.290920 -6.290911 67.610237
v 6.540926 -6.540920 65.555511
v 6.661824 -6.661816 63.337055
v 6.615046 -6.615040 61.745506
v 6.490045 -6.490038 60.702179
v 6.273874 -6.273868 59.769619
v 5.985986 -5.985982 58.943996
v 5.645828 -5.645823 58.221500
v 5.109455 -5.109451 57.350662
v 3.376757 -3.376755 55.695621
v 7.294555 -3.021498 71.231682
v 7.832165 -3.244182 69.339188
v 8.219480 -3.404613 67.610237
v 8.546130 -3.539917 65.555511
v 8.704089 -3.605346 63.337055
v 8.642972 -3.580032 61.745506
v 8.479650 -3.512381 60.702179
v 8.197209 -3.395391 59.769615
v 7.821066 -3.239588 58.943996
v 7.376628 -3.055495 58.221500
v 6.675823 -2.765213 57.350662
v 4.411945 -1.827486 55.695621
v 7.895567 0.000005 71.231682
v 8.477471 0.000006 69.339188
v 8.896697 0.000006 67.610237
v 9.250262 0.000005 65.555511
v 9.421235 0.000005 63.337055
v 9.355084 0.000004 61.745506
v 9.178306 0.000005 60.702179
v 8.872594 0.000005 59.769615
v 8.465461 0.000003 58.943996
v 7.984402 0.000004 58.221500
v 7.225857 0.000003 57.350662
v 4.775454 0.000002 55.695621
v 7.294551 3.021508 71.231682
v 7.832160 3.244193 69.339188
v 8.219474 3.404624 67.610237
v 8.546125 3.539927 65.555511
v 8.704083 3.605356 63.337055
v 8.642969 3.580039 61.745506
v 8.479647 3.512390 60.702179
v 8.197206 3.395399 59.769615
v 7.821063 3.239595 58.943996
v 7.376624 3.055502 58.221500
v 6.675820 2.765219 57.350662
v 4.411943 1.827489 55.695621
v 5.583006 5.583013 71.231682
v 5.994473 5.994482 69.339188
v 6.290910 6.290919 67.610237
v 6.540919 6.540927 65.555511
v 6.661815 6.661823 63.337055
v 6.615039 6.615046 61.745506
v 6.490038 6.490045 60.702179
v 6.273867 6.273875 59.769615
v 5.985981 5.985987 58.943996
v 5.645822 5.645828 58.221500
v 5.109450 5.109455 57.350662
v 3.376754 3.376757 55.695621
v 3.021498 7.294555 71.231682
v 3.244182 7.832163 69.339188
v 3.404613 8.219478 67.610237
v 3.539916 8.546130 65.555511
v 3.605345 8.704087 63.337055
v 3.580031 8.642971 61.745506
v 3.512380 8.479649 60.702179
v 3.395390 8.197209 59.769619
v 3.239587 7.821067 58.943996
v 3.055494 7.376627 58.221500
v 2.765212 6.675823 57.350662
v 1.827485 4.411944 55.695621
vt 0.580675 0.000000
vt 0.607420 0.000000
vt 0.607420 0.000000
vt 0.580675 0.000000
vt 0.733333 0.000000
vt 0.752604 0.000000
vt 0.752604 0.000000
vt 0.733333 0.000000
vt 0.634182 0.000000
vt 0.634182 0.000000
vt 0.660948 0.000000
vt 0.660948 0.000000
vt 0.840000 0.000000
vt 0.840000 0.000000
vt 0.680000 0.000000
vt 0.680000 0.000000
vt 0.693333 0.000000
vt 0.693333 0.000000
vt 0.706667 0.000000
vt 0.706667 0.000000
vt 0.720000 0.000000
vt 0.720000 0.000000
vt 0.520194 0.000000
vt 0.520194 0.000000
vt 0.634182 0.000000
vt 0.607420 0.000000
vt 0.660948 0.000000
vt 0.840000 0.000000
vt 0.752604 0.000000
vt 0.680000 0.000000
vt 0.693333 0.000000
vt 0.706667 0.000000
vt 0.720000 0.000000
vt 0.580675 0.000000
vt 0.520194 0.000000
vt 0.733333 0.000000
vt 0.840000 0.000000
vt 0.752604 0.000000
vt 0.680000 0.000000
vt 0.660948 0.000000
vt 0.693333 0.000000
vt 0.706667 0.000000
vt 0.000000 0.000000
vt 0.000000 0.000000
vt 0.000000 0.000000
vt 0.720000 0.000000
vt 0.580675 0.000000
vt 0.520194 0.000000
vt 0.733333 0.000000
vt 0.607420 0.000000
vt 0.634182 0.000000
vt 0.693333 0.000000
vt 0.680000 0.000000
vt 0.706667 0.000000
vt 0.000000 0.000000
vt 0.000000 0.000000
vt 0.720000 0.000000
vt 0.580675 0.000000
vt 0.520194 0.000000
vt 0.733333 0.000000
vt 0.607420 0.000000
vt 0.752604 0.000000
vt 0.634182 0.000000
vt 0.660948 0.000000
vt 0.840000 0.000000
vt 0.720000 0.000000
vt 0.706667 0.000000
vt 0.580675 0.000000
vt 0.520194 0.000000
vt 0.733333 0.000000
vt 0.607420 0.000000
vt 0.752604 0.000000
vt 0.634182 0.000000
vt 0.660948 0.000000
vt 0.840000 0.000000
vt 0.680000 0.000000
vt 0.693333 0.000000
vt 0.000000 0.000000
vt 0.000000 0.000000
vt 0.000000 0.000000
vt 0.607420 0.000000
vt 0.580675 0.000000
vt 0.752604 0.000000
vt 0.733333 0.000000
vt 0.634182 0.000000
vt 0.660948 0.000000
vt 0.840000 0.000000
vt 0.680000 0.000000
vt 0.693333 0.000000
vt 0.706667 0.000000
vt 0.000000 0.000000
vt 0.720000 0.000000
vt 0.520194 0.000000
vt 0.660948 0.000000
vt 0.634182 0.000000
vt 0.840000 0.000000
vt 0.752604 0.000000
vt 0.680000 0.000000
vt 0.693333 0.000000
vt 0.706667 0.000000
vt 0.720000 0.000000
vt 0.580675 0.000000
vt 0.520194 0.000000
vt 0.733333 0.000000
vt 0.607420 0.000000
vt 0.680000 0.000000
vt 0.660948 0.000000
vt 0.693333 0.000000
vt 0.706667 0.000000
vt 0.720000 0.000000
vt 0.580675 0.000000
vt 0.520194 0.000000
vt 0.733333 0.000000
vt 0.607420 0.000000
vt 0.752604 0.000000
vt 0.634182 0.000000
vt 0.840000 0.000000
vt 0.706667 0.000000
vt 0.693333 0.000000
vt 0.720000 0.000000
vt 0.580675 0.000000
vt 0.520194 0.000000
vt 0.733333 0.000000
vt 0.607420 0.000000
vt 0.752604 0.000000
vt 0.634182 0.000000
vt 0.660948 0.000000
vt 0.840000 0.000000
vt 0.680000 0.000000
vt 0.000000 0.000000
vt 0.000000 0.000000
vt 0.000000 0.000000
vt 0.580675 0.000000
vt 0.520194 0.000000
vt 0.733333 0.000000
vt 0.720000 0.000000
vt 0.607420 0.000000
vt 0.752604 0.000000
vt 0.634182 0.000000
vt 0.660948 0.000000
vt 0.840000 0.000000
vt 0.680000 0.000000
vt 0.693333 0.000000
vt 0.706667 0.000000
vt 0.000000 0.000000
vt 0.000000 0.000000
vt 0.000000 0.000000
vt 0.752604 0.000000
vt 0.733333 0.000000
vt 0.634182 0.000000
vt 0.607420 0.000000
vt 0.660948 0.000000
vt 0.840000 0.000000
vt 0.680000 0.000000
vt 0.000000 0.000000
vt 0.693333 0.000000
vt 0.706667 0.000000
vt 0.000000 0.000000
vt 0.720000 0.000000
vt 0.580675 0.000000
vt 0.520194 0.000000
vt 0.000000 0.000000
vt 0.000000 0.000000
vt 0.660948 0.000000
vt 0.634182 0.000000
vt 0.840000 0.000000
vt 0.752604 0.000000
vt 0.680000 0.000000
vt 0.000000 0.000000
vt 0.693333 0.000000
vt 0.706667 0.000000
vt 0.000000 0.000000
vt 0.720000 0.000000
vt 0.580675 0.000000
vt 0.520194 0.000000
vt 0.733333 0.000000
vt 0.607420 0.000000
vt 0.000000 0.000000
vt 0.000000 0.000000
vt 0.693333 0.000000
vt 0.680000 0.000000
vt 0.706667 0.000000
vt 0.000000 0.000000
vt 0.720000 0.000000
vt 0.580675 0.000000
vt 0.520194 0.000000
vt 0.733333 0.000000
vt 0.607420 0.000000
vt 0.752604 0.000000
vt 0.634182 0.000000
vt 0.000000 0.000000
vt 0.000000 0.000000
vt 0.660948 0.000000
vt 0.840000 0.000000
vt 0.000000 0.000000
vt 0.720000 0.000000
vt 0.706667 0.000000
vt 0.580675 0.000000
vt 0.520194 0.000000
vt 0.733333 0.000000
vt 0.607420 0.000000
vt 0.752604 0.000000
vt 0.634182 0.000000
vt 0.000000 0.000000
vt 0.000000 0.000000
vt 0.660948 0.000000
vt 0.840000 0.000000
vt 0.680000 0.000000
vt 0.693333 0.000000
vt 0.000000 0.000000
vt 0.733333 0.000000
vt 0.720000 0.000000
vt 0.607420 0.000000
vt 0.580675 0.000000
vt 0.752604 0.000000
vt 0.634182 0.000000
vt 0.660948 0.000000
vt 0.840000 0.000000
vt 0.680000 0.000000
vt 0.693333 0.000000
vt 0.706667 0.000000
vt 0.000000 0.000000
vt 0.520194 0.000000
vt 0.000000 0.000000
vn -0.1898 0.9542 0.2314
vn -0.1483 0.7457 -0.6496
vn -0.1924 0.9671 0.1664
vn -0.1945 0.9780 0.0754
vn -0.1106 0.5563 -0.8236
vn -0.1949 0.9800 -0.0407
vn -0.1925 0.9675 -0.1639
vn -0.1857 0.9337 -0.3061
vn -0.1756 0.8829 -0.4354
vn -0.1868 0.9390 0.2887
vn -0.1633 0.8212 -0.5468
vn -0.5478 0.8199 0.1664
vn -0.5540 0.8291 0.0754
vn -0.3151 0.4716 -0.8236
vn -0.5551 0.8308 -0.0407
vn -0.5481 0.8202 -0.1639
vn -0.5289 0.7916 -0.3061
vn -0.5001 0.7485 -0.4354
vn -0.5319 0.7961 0.2887
vn -0.4652 0.6962 -0.5468
vn -0.5405 0.8089 0.2314
vn -0.4224 0.6322 -0.6496
vn -0.4716 0.3151 -0.8236
vn -0.8308 0.5551 -0.0407
vn -0.8202 0.5481 -0.1639
vn -0.7916 0.5289 -0.3061
vn 0.0000 0.0000 1.0000
vn -0.7485 0.5001 -0.4354
vn -0.7961 0.5319 0.2887
vn -0.6962 0.4652 -0.5468
vn -0.8089 0.5405 0.2314
vn -0.6322 0.4224 -0.6495
vn -0.8199 0.5478 0.1664
vn -0.8291 0.5540 0.0754
vn -0.9675 0.1925 -0.1639
vn -0.9337 0.1857 -0.3061
vn -0.8829 0.1756 -0.4354
vn -0.9390 0.1868 0.2887
vn -0.8212 0.1633 -0.5468
vn -0.9542 0.1898 0.2314
vn -0.7457 0.1483 -0.6496
vn -0.9671 0.1924 0.1664
vn -0.9780 0.1945 0.0754
vn -0.5563 0.1106 -0.8236
vn -0.9800 0.1949 -0.0407
vn -0.8829 -0.1756 -0.4354
vn -0.9390 -0.1868 0.2887
vn -0.8212 -0.1633 -0.5468
vn -0.9542 -0.1898 0.2314
vn -0.7457 -0.1483 -0.6496
vn -0.9671 -0.1924 0.1664
vn -0.9780 -0.1945 0.0754
vn -0.5563 -0.1106 -0.8236
vn -0.9800 -0.1949 -0.0407
vn -0.9675 -0.1925 -0.1639
vn -0.9337 -0.1857 -0.3061
vn -0.8089 -0.5405 0.2314
vn -0.6322 -0.4224 -0.6496
vn -0.8199 -0.5478 0.1664
vn -0.8291 -0.5540 0.0754
vn -0.4716 -0.3151 -0.8236
vn -0.8308 -0.5551 -0.0407
vn -0.8202 -0.5481 -0.1639
vn -0.7916 -0.5289 -0.3061
vn -0.7485 -0.5001 -0.4354
vn -0.7961 -0.5319 0.2887
vn -0.6962 -0.4652 -0.5468
vn -0.5540 -0.8291 0.0754
vn -0.3151 -0.4716 -0.8236
vn -0.5551 -0.8308 -0.0407
vn -0.5481 -0.8202 -0.1639
vn -0.5289 -0.7916 -0.3061
vn -0.5001 -0.7485 -0.4354
vn -0.5319 -0.7961 0.2887
vn -0.4652 -0.6962 -0.5468
vn -0.5405 -0.8089 0.2314
vn -0.4224 -0.6322 -0.6496
vn -0.5478 -0.8199 0.1664
vn -0.1949 -0.9800 -0.0407
vn -0.1925 -0.9675 -0.1639
vn -0.1857 -0.9337 -0.3061
vn -0.1756 -0.8829 -0.4354
vn -0.1868 -0.9390 0.2887
vn -0.1633 -0.8212 -0.5468
vn -0.1898 -0.9542 0.2314
vn -0.1483 -0.7457 -0.6496
vn -0.1924 -0.9671 0.1664
vn -0.1945 -0.9780 0.0754
vn -0.1107 -0.5563 -0.8236
vn 0.1857 -0.9337 -0.3061
vn 0.1756 -0.8829 -0.4354
vn 0.1868 -0.9390 0.2887
vn 0.1633 -0.8212 -0.5468
vn 0.1898 -0.9542 0.2314
vn 0.1483 -0.7457 -0.6496
vn 0.1924 -0.9671 0.1664
vn 0.1945 -0.9780 0.0754
vn 0.1107 -0.5563 -0.8236
vn 0.1949 -0.9800 -0.0407
vn 0.1925 -0.9675 -0.1639
vn -0.0000 0.0000 -1.0000
vn 0.5319 -0.7961 0.2887
vn 0.4652 -0.6962 -0.5468
vn 0.5405 -0.8089 0.2314
vn 0.4224 -0.6322 -0.6496
vn 0.5478 -0.8199 0.1664
vn 0.5540 -0.8291 0.0754
vn 0.3151 -0.4716 -0.8236
vn 0.5551 -0.8308 -0.0407
vn 0.5481 -0.8202 -0.1639
vn 0.5289 -0.7916 -0.3061
vn 0.5001 -0.7485 -0.4354
vn 0.6322 -0.4224 -0.6495
vn 0.8199 -0.5478 0.1664
vn 0.8291 -0.5540 0.0754
vn 0.4716 -0.3151 -0.8236
vn 0.8308 -0.5551 -0.0407
vn 0.8202 -0.5481 -0.1639
vn 0.7916 -0.5289 -0.3061
vn 0.7485 -0.5001 -0.4354
vn 0.7961 -0.5319 0.2887
vn 0.6962 -0.4652 -0.5468
vn 0.8089 -0.5405 0.2314
vn 0.9780 -0.1945 0.0754
vn 0.5563 -0.1106 -0.8236
vn 0.9800 -0.1949 -0.0407
vn 0.9675 -0.1925 -0.1639
vn 0.9337 -0.1857 -0.3061
vn 0.8829 -0.1756 -0.4354
vn 0.9390 -0.1868 0.2887
vn 0.8212 -0.1633 -0.5468
vn 0.9542 -0.1898 0.2314
vn 0.7457 -0.1483 -0.6496
vn 0.9671 -0.1924 0.1664
vn 0.9675 0.1925 -0.1639
vn 0.9337 0.1857 -0.3061
vn 0.8829 0.1756 -0.4354
vn 0.9390 0.1868 0.2887
vn 0.8212 0.1633 -0.5468
vn 0.9542 0.1898 0.2314
vn 0.7457 0.1483 -0.6495
vn 0.9671 0.1924 0.1664
vn 0.9780 0.1945 0.0754
vn 0.5563 0.1106 -0.8236
vn 0.9800 0.1949 -0.0407
vn 0.7485 0.5001 -0.4354
vn 0.7961 0.5319 0.2887
vn 0.6962 0.4652 -0.5468
vn 0.8089 0.5405 0.2314
vn 0.6322 0.4224 -0.6496
vn 0.8199 0.5478 0.1664
vn 0.8291 0.5540 0.0754
vn 0.4716 0.3151 -0.8236
vn 0.8308 0.5551 -0.0407
vn 0.8202 0.5481 -0.1639
vn 0.7916 0.5289 -0.3061
vn 0.4652 0.6962 -0.5468
vn 0.5405 0.8089 0.2314
vn 0.4224 0.6322 -0.6495
vn 0.5478 0.8199 0.1664
vn 0.5540 0.8291 0.0754
vn 0.3151 0.4716 -0.8236
vn 0.5551 0.8308 -0.0407
vn 0.5481 0.8202 -0.1639
vn 0.5289 0.7916 -0.3061
vn 0.5001 0.7485 -0.4354
vn 0.5319 0.7961 0.2887
vn 0.1924 0.9671 0.1664
vn 0.1945 0.9780 0.0754
vn 0.1107 0.5563 -0.8236
vn 0.1949 0.9800 -0.0407
vn 0.1925 0.9675 -0.1639
vn 0.1857 0.9337 -0.3061
vn 0.1756 0.8829 -0.4354
vn 0.1868 0.9390 0.2887
vn 0.1633 0.8212 -0.5468
vn 0.1898 0.9542 0.2314
vn 0.1483 0.7457 -0.6496
usemtl Glass
s off
f 2/1/1 3/2/1 15/3/1 14/4/1
f 10/5/2 11/6/2 23/7/2 22/8/2
f 3/2/3 4/9/3 16/10/3 15/3/3
f 4/9/4 5/11/4 17/12/4 16/10/4
f 11/6/5 12/13/5 24/14/5 23/7/5
f 5/11/6 6/15/6 18/16/6 17/12/6
f 6/15/7 7/17/7 19/18/7 18/16/7
f 7/17/8 8/19/8 20/20/8 19/18/8
f 8/19/9 9/21/9 21/22/9 20/20/9
f 1/23/10 2/1/10 14/4/10 13/24/10
f 9/21/11 10/5/11 22/8/11 21/22/11
f 15/3/12 16/10/12 28/25/12 27/26/12
f 16/10/13 17/12/13 29/27/13 28/25/13
f 23/7/14 24/14/14 36/28/14 35/29/14
f 17/12/15 18/16/15 30/30/15 29/27/15
f 18/16/16 19/18/16 31/31/16 30/30/16
f 19/18/17 20/20/17 32/32/17 31/31/17
f 20/20/18 21/22/18 33/33/18 32/32/18
f 13/24/19 14/4/19 26/34/19 25/35/19
f 21/22/20 22/8/20 34/36/20 33/33/20
f 14/4/21 15/3/21 27/26/21 26/34/21
f 22/8/22 23/7/22 35/29/22 34/36/22
f 35/29/23 36/28/23 48/37/23 47/38/23
f 29/27/24 30/30/24 42/39/24 41/40/24
f 30/30/25 31/31/25 43/41/25 42/39/25
f 31/31/26 32/32/26 44/42/26 43/41/26
f 157/43/27 169/44/27 181/45/27
f 32/32/28 33/33/28 45/46/28 44/42/28
f 25/35/29 26/34/29 38/47/29 37/48/29
f 33/33/30 34/36/30 46/49/30 45/46/30
f 26/34/31 27/26/31 39/50/31 38/47/31
f 34/36/32 35/29/32 47/38/32 46/49/32
f 27/26/33 28/25/33 40/51/33 39/50/33
f 28/25/34 29/27/34 41/40/34 40/51/34
f 42/39/35 43/41/35 55/52/35 54/53/35
f 43/41/36 44/42/36 56/54/36 55/52/36
f 1/55/27 145/56/27 157/43/27
f 44/42/37 45/46/37 57/57/37 56/54/37
f 37/48/38 38/47/38 50/58/38 49/59/38
f 45/46/39 46/49/39 58/60/39 57/57/39
f 38/47/40 39/50/40 51/61/40 50/58/40
f 46/49/41 47/38/41 59/62/41 58/60/41
f 39/50/42 40/51/42 52/63/42 51/61/42
f 40/51/43 41/40/43 53/64/43 52/63/43
f 47/38/44 48/37/44 60/65/44 59/62/44
f 41/40/45 42/39/45 54/53/45 53/64/45
f 56/54/46 57/57/46 69/66/46 68/67/46
f 49/59/47 50/58/47 62/68/47 61/69/47
f 57/57/48 58/60/48 70/70/48 69/66/48
f 50/58/49 51/61/49 63/71/49 62/68/49
f 58/60/50 59/62/50 71/72/50 70/70/50
f 51/61/51 52/63/51 64/73/51 63/71/51
f 52/63/52 53/64/52 65/74/52 64/73/52
f 59/62/53 60/65/53 72/75/53 71/72/53
f 53/64/54 54/53/54 66/76/54 65/74/54
f 54/53/55 55/52/55 67/77/55 66/76/55
f 55/52/56 56/54/56 68/67/56 67/77/56
f 121/78/27 133/79/27 109/80/27
f 62/68/57 63/71/57 75/81/57 74/82/57
f 70/70/58 71/72/58 83/83/58 82/84/58
f 63/71/59 64/73/59 76/85/59 75/81/59
f 64/73/60 65/74/60 77/86/60 76/85/60
f 71/72/61 72/75/61 84/87/61 83/83/61
f 65/74/62 66/76/62 78/88/62 77/86/62
f 66/76/63 67/77/63 79/89/63 78/88/63
f 67/77/64 68/67/64 80/90/64 79/89/64
f 97/91/27 133/79/27 145/56/27
f 68/67/65 69/66/65 81/92/65 80/90/65
f 61/69/66 62/68/66 74/82/66 73/93/66
f 69/66/67 70/70/67 82/84/67 81/92/67
f 76/85/68 77/86/68 89/94/68 88/95/68
f 83/83/69 84/87/69 96/96/69 95/97/69
f 77/86/70 78/88/70 90/98/70 89/94/70
f 78/88/71 79/89/71 91/99/71 90/98/71
f 79/89/72 80/90/72 92/100/72 91/99/72
f 109/80/27 133/79/27 97/91/27
f 80/90/73 81/92/73 93/101/73 92/100/73
f 73/93/74 74/82/74 86/102/74 85/103/74
f 81/92/75 82/84/75 94/104/75 93/101/75
f 74/82/76 75/81/76 87/105/76 86/102/76
f 82/84/77 83/83/77 95/97/77 94/104/77
f 75/81/78 76/85/78 88/95/78 87/105/78
f 89/94/79 90/98/79 102/106/79 101/107/79
f 90/98/80 91/99/80 103/108/80 102/106/80
f 91/99/81 92/100/81 104/109/81 103/108/81
f 181/45/27 1/55/27 157/43/27
f 92/100/82 93/101/82 105/110/82 104/109/82
f 85/103/83 86/102/83 98/111/83 97/112/83
f 93/101/84 94/104/84 106/113/84 105/110/84
f 86/102/85 87/105/85 99/114/85 98/111/85
f 94/104/86 95/97/86 107/115/86 106/113/86
f 87/105/87 88/95/87 100/116/87 99/114/87
f 88/95/88 89/94/88 101/107/88 100/116/88
f 95/97/89 96/96/89 108/117/89 107/115/89
f 103/108/90 104/109/90 116/118/90 115/119/90
f 97/91/27 145/56/27 1/55/27
f 104/109/91 105/110/91 117/120/91 116/118/91
f 97/112/92 98/111/92 110/121/92 109/122/92
f 105/110/93 106/113/93 118/123/93 117/120/93
f 98/111/94 99/114/94 111/124/94 110/121/94
f 106/113/95 107/115/95 119/125/95 118/123/95
f 99/114/96 100/116/96 112/126/96 111/124/96
f 100/116/97 101/107/97 113/127/97 112/126/97
f 107/115/98 108/117/98 120/128/98 119/125/98
f 101/107/99 102/106/99 114/129/99 113/127/99
f 102/106/100 103/108/100 115/119/100 114/129/100
f 192/130/101 84/131/101 36/132/101
f 109/122/102 110/121/102 122/133/102 121/134/102
f 117/120/103 118/123/103 130/135/103 129/136/103
f 110/121/104 111/124/104 123/137/104 122/133/104
f 118/123/105 119/125/105 131/138/105 130/135/105
f 111/124/106 112/126/106 124/139/106 123/137/106
f 112/126/107 113/127/107 125/140/107 124/139/107
f 119/125/108 120/128/108 132/141/108 131/138/108
f 113/127/109 114/129/109 126/142/109 125/140/109
f 114/129/110 115/119/110 127/143/110 126/142/110
f 115/119/111 116/118/111 128/144/111 127/143/111
f 97/91/27 1/55/27 85/145/27
f 116/118/112 117/120/112 129/136/112 128/144/112
f 144/146/101 192/130/101 168/147/101
f 130/135/113 131/138/113 143/148/113 142/149/113
f 123/137/114 124/139/114 136/150/114 135/151/114
f 124/139/115 125/140/115 137/152/115 136/150/115
f 131/138/116 132/141/116 144/153/116 143/148/116
f 125/140/117 126/142/117 138/154/117 137/152/117
f 144/146/101 168/147/101 156/155/101
f 126/142/118 127/143/118 139/156/118 138/154/118
f 127/143/119 128/144/119 140/157/119 139/156/119
f 85/145/27 1/55/27 13/158/27
f 128/144/120 129/136/120 141/159/120 140/157/120
f 121/134/121 122/133/121 134/160/121 133/161/121
f 129/136/122 130/135/122 142/149/122 141/159/122
f 122/133/123 123/137/123 135/151/123 134/160/123
f 120/162/101 108/163/101 192/130/101
f 136/150/124 137/152/124 149/164/124 148/165/124
f 143/148/125 144/153/125 156/166/125 155/167/125
f 137/152/126 138/154/126 150/168/126 149/164/126
f 192/130/101 180/169/101 168/147/101
f 138/154/127 139/156/127 151/170/127 150/168/127
f 139/156/128 140/157/128 152/171/128 151/170/128
f 85/145/27 13/158/27 73/172/27
f 140/157/129 141/159/129 153/173/129 152/171/129
f 133/161/130 134/160/130 146/174/130 145/175/130
f 141/159/131 142/149/131 154/176/131 153/173/131
f 134/160/132 135/151/132 147/177/132 146/174/132
f 142/149/133 143/148/133 155/167/133 154/176/133
f 135/151/134 136/150/134 148/165/134 147/177/134
f 144/146/101 132/178/101 120/162/101
f 192/130/101 108/163/101 96/179/101
f 192/130/101 96/179/101 84/131/101
f 150/168/135 151/170/135 163/180/135 162/181/135
f 151/170/136 152/171/136 164/182/136 163/180/136
f 73/172/27 13/158/27 25/183/27
f 152/171/137 153/173/137 165/184/137 164/182/137
f 145/175/138 146/174/138 158/185/138 157/186/138
f 153/173/139 154/176/139 166/187/139 165/184/139
f 146/174/140 147/177/140 159/188/140 158/185/140
f 154/176/141 155/167/141 167/189/141 166/187/141
f 147/177/142 148/165/142 160/190/142 159/188/142
f 36/132/101 72/191/101 60/192/101
f 148/165/143 149/164/143 161/193/143 160/190/143
f 155/167/144 156/166/144 168/194/144 167/189/144
f 149/164/145 150/168/145 162/181/145 161/193/145
f 84/131/101 72/191/101 36/132/101
f 73/172/27 25/183/27 61/195/27
f 164/182/146 165/184/146 177/196/146 176/197/146
f 157/186/147 158/185/147 170/198/147 169/199/147
f 165/184/148 166/187/148 178/200/148 177/196/148
f 158/185/149 159/188/149 171/201/149 170/198/149
f 166/187/150 167/189/150 179/202/150 178/200/150
f 159/188/151 160/190/151 172/203/151 171/201/151
f 24/204/101 12/205/101 192/130/101
f 160/190/152 161/193/152 173/206/152 172/203/152
f 167/189/153 168/194/153 180/207/153 179/202/153
f 161/193/154 162/181/154 174/208/154 173/206/154
f 144/146/101 120/162/101 192/130/101
f 162/181/155 163/180/155 175/209/155 174/208/155
f 163/180/156 164/182/156 176/197/156 175/209/156
f 48/210/101 36/132/101 60/192/101
f 177/196/157 178/200/157 190/211/157 189/212/157
f 170/198/158 171/201/158 183/213/158 182/214/158
f 178/200/159 179/202/159 191/215/159 190/211/159
f 171/201/160 172/203/160 184/216/160 183/213/160
f 24/204/101 192/130/101 36/132/101
f 172/203/161 173/206/161 185/217/161 184/216/161
f 179/202/162 180/207/162 192/218/162 191/215/162
f 173/206/163 174/208/163 186/219/163 185/217/163
f 174/208/164 175/209/164 187/220/164 186/219/164
f 175/209/165 176/197/165 188/221/165 187/220/165
f 61/195/27 25/183/27 37/222/27
f 176/197/166 177/196/166 189/212/166 188/221/166
f 169/199/167 170/198/167 182/214/167 181/223/167
f 183/213/168 184/216/168 4/9/168 3/2/168
f 184/216/169 185/217/169 5/11/169 4/9/169
f 191/215/170 192/218/170 12/13/170 11/6/170
f 185/217/171 186/219/171 6/15/171 5/11/171
f 186/219/172 187/220/172 7/17/172 6/15/172
f 187/220/173 188/221/173 8/19/173 7/17/173
f 61/195/27 37/222/27 49/224/27
f 188/221/174 189/212/174 9/21/174 8/19/174
f 181/223/175 182/214/175 2/1/175 1/23/175
f 189/212/176 190/211/176 10/5/176 9/21/176
f 182/214/177 183/213/177 3/2/177 2/1/177
f 190/211/178 191/215/178 11/6/178 10/5/178
